<?xml version="1.0" encoding="UTF-8"?>
<svg width="78px" height="18px" viewBox="0 0 78 18" version="1.1" xmlns="http://www.w3.org/2000/svg" xmlns:xlink="http://www.w3.org/1999/xlink">
    <title>afterpay</title>
    <g id="✅-Product-Page-[Simple]" stroke="none" stroke-width="1" fill="none" fill-rule="evenodd">
        <g id="003-Product-[Desktop]-01-Turmeric-Theme" transform="translate(-908.000000, -877.000000)">
            <g id="page-|-product-details" transform="translate(731.000000, 125.000000)">
                <g id="component-|-alternate-payment" transform="translate(147.000000, 690.000000)">
                    <g id="component-|-icons" transform="translate(0.000000, 43.000000)">
                        <g id="afterpay" transform="translate(27.000000, 7.000000)">
                            <path d="M70.5319956,18.7671976 C71.035533,18.7671976 71.4437024,19.1752342 71.4437024,19.6787716 L71.4437024,23.5187258 C71.4437024,26.0312327 70.0324429,27.2638434 67.7970078,27.2638434 C65.5617055,27.2638434 64.2160612,26.0184815 64.2160612,23.5770357 L64.2160612,19.6787716 C64.2160612,19.1752342 64.6242307,18.7671976 65.1277681,18.7671976 C65.6311727,18.7671976 66.039475,19.1752342 66.039475,19.6787716 L66.039475,23.5314769 C66.039475,24.882567 66.7158169,25.5826846 67.8298154,25.5826846 C68.9439467,25.5826846 69.6204215,24.9062098 69.6204215,23.5915136 L69.6204215,19.6787716 C69.6204215,19.1752342 70.028591,18.7671976 70.5319956,18.7671976 Z M79.9256844,18.7525603 C80.3922966,18.7277221 80.7907699,19.0858168 80.8154753,19.552429 C80.8170692,19.5824473 80.8170692,19.6124656 80.8154753,19.6423511 C80.8040524,19.8749267 80.7213027,20.0983374 80.5785165,20.2822992 L77.8999791,23.897913 L77.8999791,26.2919405 C77.8999791,26.7954779 77.4919424,27.2036473 76.988405,27.2036473 C76.4848676,27.2036473 76.0766982,26.7954779 76.0766982,26.2919405 L76.0675333,23.9325802 L73.396434,20.2950504 C73.2517882,20.1080336 73.1723592,19.8787786 73.1703669,19.6423511 C73.1783363,19.149971 73.5838493,18.757342 74.0762295,18.7651786 L74.0820737,18.7653115 C74.4959547,18.7653115 74.7585485,18.9896519 74.9827562,19.3233069 L76.9974371,22.2277786 L79.0486447,19.2995313 C79.2747119,18.9677359 79.5464707,18.7525603 79.9256844,18.7525603 Z M41.1640498,18.7598809 C41.3519963,18.7579131 41.5196208,18.8771895 41.5797902,19.0551742 L45.1114589,26.7130337 C45.1413444,26.7693513 45.1576818,26.8317788 45.1588773,26.8954017 C45.1548925,27.0550566 45.0231307,27.1820368 44.8634757,27.1799116 C44.7237444,27.166762 44.603804,27.0745818 44.5553231,26.9429528 L43.5835795,24.8095269 L38.6879368,24.8095269 L37.7161933,26.9555711 C37.6771429,27.0868017 37.5576009,27.1775208 37.4207918,27.1799116 C37.2710986,27.1840292 37.1451811,27.0686047 37.1362818,26.9191773 C37.1372116,26.8532963 37.1527521,26.7886108 37.1818406,26.729504 L40.7263933,19.0551742 C40.7862971,18.8778536 40.9529918,18.7587101 41.1402742,18.7598809 L41.1640498,18.7598809 Z M52.6746412,18.8018116 C52.8380153,18.8079215 52.9707069,18.9358315 52.9826611,19.0990727 C52.9742931,19.1854085 52.9412198,19.2676269 52.8878244,19.3360315 L49.6752,23.8377169 L49.6752,26.8716925 C49.6752,27.0418406 49.5373282,27.1798452 49.3670473,27.1798452 C49.1968992,27.1798452 49.0588947,27.0418406 49.0588947,26.8716925 L49.0588947,23.8504681 L45.8226275,19.2923322 C45.7876947,19.2373429 45.7671069,19.1746498 45.762458,19.1099643 C45.7710916,18.9384879 45.9117527,18.8034055 46.0833618,18.8018116 C46.2043649,18.8057963 46.3135466,18.875662 46.3677389,18.9840467 L49.3779389,23.3109353 L52.4010229,18.9840467 C52.4544183,18.8800452 52.5580214,18.8111093 52.6746412,18.8018116 Z M30.0837696,18.7890472 C30.2539177,18.7890472 30.3919223,18.9270518 30.3919223,19.0971998 L30.3919223,26.5726915 L35.0268307,26.5726915 C35.1838292,26.5724258 35.3114734,26.6995388 35.3117395,26.8566701 C35.3120047,27.0138014 35.1848918,27.1414456 35.0277605,27.1415785 L30.0837696,27.1415785 C29.9148169,27.1386563 29.7785391,27.0025113 29.7756169,26.8334258 L29.7756169,19.0971998 C29.7756169,18.9270518 29.9136215,18.7890472 30.0837696,18.7890472 Z M59.0470525,18.8381922 C59.9951533,18.8381922 60.7426892,19.0990594 61.2167395,19.5675311 C61.5943594,19.9383769 61.8005029,20.449751 61.7856266,20.9787907 L61.7856266,21.0025663 C61.7856266,21.9396426 61.2878006,22.4611113 60.6916846,22.7930395 C61.6525365,23.1576426 62.2450663,23.7173647 62.2450663,24.831496 L62.2450663,24.8552716 C62.2450663,26.3721266 61.0125884,27.130554 59.1454754,27.130554 L56.1096403,27.130554 C55.6062357,27.130554 55.1980663,26.7225174 55.1980663,26.21898 L55.1962067,19.7498991 C55.1962067,19.2464945 55.6043762,18.8381922 56.1077808,18.8381922 L59.0470525,18.8381922 Z M59.0871655,23.7083327 L56.9739289,23.7083327 L56.9739289,25.5316136 L59.147335,25.5334731 C59.9531808,25.5334731 60.4382556,25.2489632 60.4382556,24.6327907 L60.4382556,24.6090151 C60.4382556,24.0530121 60.0225151,23.7083327 59.0871655,23.7083327 Z M41.1329689,19.4508582 L38.9450849,24.2516643 L43.3209856,24.2516643 L41.1329689,19.4508582 Z M58.7790128,20.4372655 L56.9775151,20.4372655 L56.9775151,22.1913449 L58.6605334,22.1913449 C59.4663792,22.1913449 59.9768235,21.9306105 59.9768235,21.3143052 L59.9768235,21.2906624 C59.9768235,20.7435586 59.5501915,20.4372655 58.7790128,20.4372655 Z" id="01-pure-black" fill="#000000"></path>
                            <path d="M16.1158466,14.2793922 L14.1991901,16.1960487 C14.0663656,16.3288731 13.8750985,16.1960487 13.8750985,16.1960487 L11.4244878,13.6976212 C10.6313931,12.9097067 9.3512313,12.9097067 8.55813664,13.6976212 C7.76889389,14.4900518 7.76889389,15.7715418 8.55813664,16.5639724 L12.6199076,20.6363693 C13.4123382,21.4256121 14.6938282,21.4256121 15.4862588,20.6363693 L18.8932053,17.2294227 L19.4909153,16.6171021 C19.8986863,16.2084014 20.5606832,16.2078701 20.9692511,16.6157739 C20.9696496,16.6161724 20.9700481,16.6167037 20.9705794,16.6171021 C21.3682557,17.006809 21.3746313,17.6450304 20.9850573,18.0427067 C20.9776191,18.0502777 20.9701809,18.0575831 20.9626099,18.0648884 L20.3476328,18.6838502 L14.1619992,24.8747968 C14.0655687,24.9774701 13.904187,24.9826502 13.8015137,24.8862197 C13.797529,24.8826334 13.7938099,24.8786487 13.7900908,24.8747968 L7.05854885,18.1432548 C6.26505573,17.3552075 4.9843626,17.3552075 4.19086947,18.1432548 C3.40308779,18.9363495 3.40308779,20.2165113 4.19086947,21.009606 L12.584045,29.4027815 L12.5388847,29.3642624 C13.3323779,30.1521769 14.613071,30.1521769 15.4065641,29.3642624 L23.2206252,21.5502014 L23.3029763,21.4678502 C25.3197824,19.5149327 25.3717168,16.2968624 23.4187992,14.2800563 C21.4660145,12.2632502 18.2479443,12.2113159 16.2311382,14.1641006 C16.1920878,14.2019556 16.1537015,14.2403418 16.1158466,14.2793922" id="01-pure-black" fill="#796DFF"></path>
                        </g>
                    </g>
                </g>
            </g>
        </g>
    </g>
</svg>