<?xml version="1.0" encoding="utf-8"?>
<!-- Generator: Adobe Illustrator 26.5.0, SVG Export Plug-In . SVG Version: 6.00 Build 0)  -->
<svg version="1.1" id="Layer_1" xmlns="http://www.w3.org/2000/svg" xmlns:xlink="http://www.w3.org/1999/xlink" x="0px" y="0px"
	 viewBox="0 0 37.8 40" style="enable-background:new 0 0 37.8 40;" xml:space="preserve">
<style type="text/css">
	.st0{fill:#5F6368;}
	.st1{fill:#4285F4;}
	.st2{fill:#34A853;}
	.st3{fill:#FBBC04;}
	.st4{fill:#EA4335;}
</style>
<path class="st0" d="M17.7,19.8v4.4h-1.4V13.4H20c0.9,0,1.7,0.3,2.4,0.9c0.6,0.6,1,1.4,1,2.3c0,0.9-0.3,1.7-1,2.3
	c-0.6,0.6-1.4,0.9-2.4,0.9H17.7L17.7,19.8z M17.7,14.7v3.8H20c0.5,0,1-0.2,1.4-0.6c0.7-0.7,0.7-1.9,0-2.6l0,0
	c-0.4-0.4-0.9-0.6-1.4-0.6H17.7L17.7,14.7z"/>
<path class="st0" d="M26.5,16.6c1,0,1.8,0.3,2.4,0.8s0.9,1.3,0.9,2.2v4.5h-1.3v-1h-0.1c-0.6,0.8-1.3,1.3-2.3,1.3
	c-0.8,0-1.5-0.2-2-0.7c-0.5-0.4-0.8-1.1-0.8-1.8c0-0.8,0.3-1.4,0.9-1.8c0.6-0.5,1.3-0.7,2.3-0.7c0.8,0,1.5,0.2,2,0.5v-0.4
	c0-0.5-0.2-0.9-0.6-1.2c-0.4-0.3-0.8-0.5-1.3-0.5c-0.8,0-1.4,0.3-1.8,1L23.6,18C24.2,17.1,25.2,16.6,26.5,16.6z M24.8,21.9
	c0,0.4,0.2,0.7,0.5,0.9c0.3,0.2,0.7,0.4,1.1,0.4c0.6,0,1.1-0.2,1.6-0.6c0.5-0.4,0.7-0.9,0.7-1.5c-0.4-0.3-1-0.5-1.8-0.5
	c-0.6,0-1,0.1-1.4,0.4C24.9,21.2,24.8,21.5,24.8,21.9L24.8,21.9L24.8,21.9z"/>
<path class="st0" d="M37.4,16.8l-4.6,10.6h-1.4l1.7-3.7l-3-6.9h1.5l2.2,5.3l0,0l2.1-5.3H37.4z"/>
<path class="st1" d="M12.1,18.9c0-0.4,0-0.8-0.1-1.3H6.2V20h3.3c-0.1,0.8-0.6,1.4-1.2,1.9v1.5h2C11.4,22.4,12.1,20.8,12.1,18.9z"/>
<path class="st2" d="M6.2,24.9c1.7,0,3.1-0.5,4.1-1.5l-2-1.5c-0.6,0.4-1.3,0.6-2.1,0.6c-1.6,0-3-1.1-3.5-2.6h-2v1.6
	C1.7,23.6,3.8,24.9,6.2,24.9z"/>
<path class="st3" d="M2.7,19.9c-0.2-0.7-0.2-1.6,0-2.3V16h-2c-0.9,1.7-0.9,3.8,0,5.6L2.7,19.9z"/>
<path class="st4" d="M6.2,15c0.9,0,1.7,0.3,2.4,0.9l0,0l1.8-1.8c-1.2-1-2.7-1.6-4.2-1.5c-2.4,0-4.5,1.3-5.5,3.4l2,1.6
	C3.2,16.1,4.6,15,6.2,15z"/>
</svg>
