<?xml version="1.0" encoding="utf-8"?>
<!-- Generator: Adobe Illustrator 26.5.0, SVG Export Plug-In . SVG Version: 6.00 Build 0)  -->
<svg version="1.1" id="Layer_1" xmlns="http://www.w3.org/2000/svg" xmlns:xlink="http://www.w3.org/1999/xlink" x="0px" y="0px"
	 viewBox="0 0 39 16" style="enable-background:new 0 0 39 16;" xml:space="preserve">
<style type="text/css">
	.st0{fill:#5F6368;}
	.st1{fill:#4285F4;}
	.st2{fill:#34A853;}
	.st3{fill:#FBBC04;}
	.st4{fill:#EA4335;}
</style>
<path class="st0" d="M18.5,8.2v4.4h-1.4V1.8h3.7c0.9,0,1.7,0.3,2.4,0.9c0.6,0.6,1,1.4,1,2.3c0,0.9-0.3,1.7-1,2.3
	c-0.6,0.6-1.4,0.9-2.4,0.9L18.5,8.2L18.5,8.2z M18.5,3.1v3.8h2.3c0.5,0,1-0.2,1.4-0.6c0.7-0.7,0.7-1.9,0-2.6c0,0,0,0,0,0
	c-0.4-0.4-0.9-0.6-1.4-0.6L18.5,3.1L18.5,3.1z"/>
<path class="st0" d="M27.3,5c1,0,1.8,0.3,2.4,0.8c0.6,0.5,0.9,1.3,0.9,2.2v4.5h-1.3v-1h-0.1c-0.6,0.8-1.3,1.3-2.3,1.3
	c-0.8,0-1.5-0.2-2-0.7c-0.5-0.4-0.8-1.1-0.8-1.8c0-0.8,0.3-1.4,0.9-1.8c0.6-0.5,1.3-0.7,2.3-0.7c0.8,0,1.5,0.2,2,0.5V7.9
	c0-0.5-0.2-0.9-0.6-1.2c-0.4-0.3-0.8-0.5-1.3-0.5c-0.8,0-1.4,0.3-1.8,1l-1.2-0.8C25,5.5,26,5,27.3,5z M25.6,10.3
	c0,0.4,0.2,0.7,0.5,0.9c0.3,0.2,0.7,0.4,1.1,0.4c0.6,0,1.1-0.2,1.6-0.6c0.5-0.4,0.7-0.9,0.7-1.5c-0.4-0.3-1-0.5-1.8-0.5
	c-0.6,0-1,0.1-1.4,0.4C25.7,9.6,25.6,9.9,25.6,10.3L25.6,10.3L25.6,10.3z"/>
<path class="st0" d="M38.2,5.2l-4.6,10.6h-1.4l1.7-3.7l-3-6.9h1.5l2.2,5.3h0l2.1-5.3C36.7,5.2,38.2,5.2,38.2,5.2z"/>
<path class="st1" d="M12.9,7.3c0-0.4,0-0.8-0.1-1.3H7v2.4h3.3c-0.1,0.8-0.6,1.4-1.2,1.9v1.5h2C12.2,10.8,12.9,9.2,12.9,7.3z"/>
<path class="st2" d="M7,13.3c1.7,0,3.1-0.5,4.1-1.5l-2-1.5c-0.6,0.4-1.3,0.6-2.1,0.6c-1.6,0-3-1.1-3.5-2.6H1.5v1.6
	C2.5,12,4.6,13.3,7,13.3z"/>
<path class="st3" d="M3.5,8.3C3.3,7.6,3.3,6.7,3.5,6V4.4H1.5c-0.9,1.7-0.9,3.8,0,5.6L3.5,8.3z"/>
<path class="st4" d="M7,3.4c0.9,0,1.7,0.3,2.4,0.9l0,0l1.8-1.8C10,1.5,8.5,0.9,7,1C4.6,1,2.5,2.3,1.5,4.4L3.5,6C4,4.5,5.4,3.4,7,3.4
	z"/>
</svg>
