<?xml version="1.0" encoding="UTF-8"?>
<svg width="63px" height="16px" viewBox="0 0 63 16" version="1.1" xmlns="http://www.w3.org/2000/svg" xmlns:xlink="http://www.w3.org/1999/xlink">
    <title>paypal</title>
    <g id="✅-Product-Page-[Simple]" stroke="none" stroke-width="1" fill="none" fill-rule="evenodd">
        <g id="003-Product-[Desktop]-01-Turmeric-Theme" transform="translate(-1053.000000, -878.000000)">
            <g id="page-|-product-details" transform="translate(731.000000, 125.000000)">
                <g id="component-|-alternate-payment" transform="translate(147.000000, 690.000000)">
                    <g id="component-|-icons" transform="translate(0.000000, 43.000000)">
                        <g id="paypal" transform="translate(165.000000, 7.000000)">
                            <path d="M21.725,16.7458333 C21.6324074,16.7189815 21.5361111,16.6939815 21.4361111,16.6708333 C21.3361111,16.6476852 21.2337963,16.6282407 21.1291667,16.6125 C20.7312013,16.5514324 20.3290025,16.5221731 19.9263889,16.525 L16.2805556,16.525 C15.9937559,16.524363 15.7494669,16.7332479 15.7055556,17.0166667 L14.9305556,21.9291667 L14.9083333,22.0680556 C14.9608394,21.7470494 15.238618,21.5116438 15.5638889,21.5125 L16.9277778,21.5125 C19.6083333,21.5125 21.7055556,20.4236111 22.3194444,17.275 C22.3375,17.1819444 22.3527778,17.0916667 22.3666667,16.9972222 C22.204849,16.9124153 22.0362021,16.8413327 21.8625,16.7847222 L21.725,16.7458333 Z" id="01-pure-black" fill="#012269"></path>
                            <path d="M46.9583333,19.6833333 C47.1669294,19.6830697 47.3509865,19.8197011 47.4111111,20.0194444 L47.4111111,20.0194444 L48.3652778,23.2 L50.6152778,19.8902778 C50.7030968,19.7609488 50.8492285,19.6834626 51.0055556,19.6833333 L51.0055556,19.6833333 L52.6375,19.6833333 C52.7439651,19.6799625 52.8429817,19.7377698 52.8923849,19.8321388 C52.9417881,19.9265078 52.9328763,20.0408168 52.8694444,20.1263889 L52.8694444,20.1263889 L47.4375,27.9638889 C47.3494671,28.0910108 47.2046278,28.1668302 47.05,28.1666667 L47.05,28.1666667 L45.425,28.1666667 C45.3177826,28.1703378 45.2180354,28.1119405 45.1687565,28.0166481 C45.1194776,27.9213558 45.1294771,27.8062048 45.1944444,27.7208333 L45.1944444,27.7208333 L46.8847222,25.3347222 L45.0875,20.0569444 C45.0556909,19.9705052 45.0687971,19.8739195 45.1224906,19.7990825 C45.1761841,19.7242455 45.2634817,19.6808901 45.3555556,19.6833333 L45.3555556,19.6833333 Z M18.1888889,13.2 C19.7916667,13.2 21.0430556,13.5375 21.7375,14.3291667 C22.3680556,15.0472222 22.55,15.8388889 22.3680556,17.0027778 C22.2061445,16.9181689 22.0375144,16.8470934 21.8638889,16.7902778 L21.8638889,16.7902778 L21.725,16.7472222 C21.6314815,16.7194444 21.5351852,16.6944444 21.4361111,16.6722222 C21.337037,16.65 21.2347222,16.6305556 21.1291667,16.6138889 C20.7312013,16.5528213 20.3290025,16.523562 19.9263889,16.5263889 L19.9263889,16.5263889 L16.2805556,16.5263889 C15.9939725,16.5263393 15.7500136,16.7349419 15.7055556,17.0180556 L15.7055556,17.0180556 L14.9305556,21.9305556 L14.2097222,26.5041667 L11.3333333,26.5041667 C11.2164417,26.5039789 11.105481,26.4526694 11.029629,26.3637303 C10.953777,26.2747911 10.9206244,26.1571227 10.9388889,26.0416667 L10.9388889,26.0416667 L12.8833333,13.7555556 C12.9368216,13.4356728 13.2131776,13.2009756 13.5375,13.2 L13.5375,13.2 Z M39.9833333,19.5305556 C40.7652778,19.5305556 41.55,19.7013889 41.9013889,20.2111111 L41.9013889,20.2111111 L42.0152778,20.3763889 L42.0875,19.9222222 C42.1070138,19.7841622 42.2258522,19.6819611 42.3652778,19.6833333 L42.3652778,19.6833333 L43.9944444,19.6833333 C44.0765049,19.682275 44.1548335,19.7175573 44.2084185,19.7797159 C44.2620034,19.8418745 44.2853598,19.9245466 44.2722222,20.0055556 L44.2722222,20.0055556 L43.3888889,25.5611111 C43.3563138,25.7937989 43.157179,25.9668565 42.9222222,25.9666667 L42.9222222,25.9666667 L41.4597222,25.9666667 C41.3765089,25.968028 41.2970694,25.932007 41.2432629,25.8685154 C41.1894565,25.8050238 41.1669529,25.720752 41.1819444,25.6388889 L41.1819444,25.6388889 L41.2541667,25.1875 C40.6624445,25.7896758 39.8511478,26.1251254 39.0069444,26.1166667 C38.1611111,26.1166667 37.4569444,25.8736111 36.9638889,25.2958333 C36.4236111,24.6555556 36.2027778,23.7472222 36.3583333,22.7958333 C36.65,20.8902778 38.1888889,19.5305556 39.9833333,19.5305556 Z M33.8555556,16.5458333 C34.9875,16.5458333 35.8416667,16.8458333 36.3222222,17.4111111 C36.7541667,17.9333333 36.9055556,18.6625 36.7541667,19.6 C36.4180556,21.7430556 35.1277778,22.8236111 32.8944444,22.8236111 L32.8944444,22.8236111 L31.8208333,22.8236111 C31.5886784,22.8236029 31.3911663,22.9928147 31.3555556,23.2222222 L31.3555556,23.2222222 L30.9888889,25.5611111 C30.9588516,25.7960044 30.7590282,25.9720393 30.5222222,25.9722555 L30.5222222,25.9722555 L28.9027778,25.9722555 C28.819855,25.9735038 28.7406968,25.9376671 28.6869466,25.8745106 C28.6331964,25.8113541 28.6104769,25.7274845 28.625,25.6458333 L28.625,25.6458333 L29.9958333,16.95 C30.0289617,16.7183859 30.2271401,16.5462368 30.4611111,16.5458333 L30.4611111,16.5458333 Z M40.5206731,21.2557816 L40.3680556,21.2555556 C39.4552621,21.2450069 38.6761743,21.9129662 38.5472222,22.8166667 C38.4594126,23.2158491 38.5529977,23.6334216 38.8027778,23.9569444 C39.0444444,24.2430556 39.4208333,24.3944444 39.8930556,24.3944444 C40.8088392,24.4169156 41.5963227,23.7500323 41.725,22.8430556 C41.8059789,22.4394728 41.7059753,22.0206761 41.4513889,21.6972222 C41.1744985,21.3953992 40.7770455,21.2333607 40.3680556,21.2555556 Z M32.7548898,18.4335816 L32.3541667,18.4333197 C32.2147411,18.4319611 32.0959027,18.5341622 32.0763889,18.6722222 L32.0763889,18.6722222 L31.7180556,20.9444444 L32.352339,20.9443302 C33.2145087,20.9419307 34.065404,20.8891414 34.2430556,19.7277778 C34.3111111,19.2944444 34.2569444,18.9861111 34.0777778,18.7819444 C33.7791667,18.4333197 33.2013889,18.4333197 32.5888889,18.4333197 Z" id="03-middle-shadow" fill="#013088"></path>
                            <path d="M22.3666667,17.0013889 C22.6201956,17.1290824 22.8480637,17.3023375 23.0388889,17.5125 C23.6319444,18.1875 23.7472222,19.1486111 23.5236111,20.3 C22.9819444,23.0555556 21.1458333,24.0069444 18.8013889,24.0069444 L18.8013889,24.0069444 L18.4388889,24.0069444 C18.1527291,24.0018921 17.9053747,24.205665 17.8555556,24.4875 L17.8555556,24.4875 L17.8263889,24.6458333 L17.3708333,27.5375 L17.3472222,27.6611111 C17.3021511,27.9436729 17.058356,28.1515465 16.7722222,28.151389 L16.7722222,28.151389 L14.3597222,28.151389 C14.2575077,28.151389 14.1604058,28.1066947 14.0941058,28.0288992 C14.0278059,27.9511037 13.9989886,27.8481305 14.0152778,27.7472222 L14.0152778,27.7472222 L14.2125,26.4972222 L14.9069444,22.0666667 C14.9594505,21.7456605 15.2372291,21.5102549 15.5625,21.5111111 L15.5625,21.5111111 L16.9277778,21.5111111 C19.6083333,21.5111111 21.7055556,20.4222222 22.3194444,17.2791667 C22.337037,17.1865741 22.3527778,17.0939815 22.3666667,17.0013889 Z M64.1722222,19.5291667 C64.9555556,19.5291667 65.7388889,19.7 66.0902778,20.2097222 L66.0902778,20.2097222 L66.2041667,20.375 L66.2763889,19.9208333 C66.2959027,19.7827733 66.4147411,19.6805722 66.5541667,19.6819444 L66.5541667,19.6819444 L68.1763889,19.6819444 C68.2586903,19.6818592 68.3374069,19.7169628 68.3913071,19.7791759 C68.4452073,19.841389 68.4687391,19.9243035 68.4555556,20.0055556 L68.4555556,20.0055556 L67.5777778,25.5611111 C67.547172,25.7949302 67.3483124,25.9700454 67.1125,25.9708333 L67.1125,25.9708333 L65.65,25.9708333 C65.5667867,25.9721947 65.4873471,25.9361737 65.4335407,25.8726821 C65.3797343,25.8091905 65.3572307,25.7249187 65.3722222,25.6430556 L65.3722222,25.6430556 L65.4444444,25.1916667 C64.8527223,25.7938425 64.0414256,26.1292921 63.1972222,26.1208333 C62.3541667,26.1208333 61.6472222,25.8777778 61.1513889,25.2944444 C60.6125,24.6541667 60.3930556,23.7458333 60.5472222,22.7944444 C60.8388889,20.8888889 62.3777778,19.5291667 64.1722222,19.5291667 Z M58.0402778,16.5458333 C59.175,16.5458333 60.0291667,16.8458333 60.5069444,17.4180556 C60.9402778,17.9402778 61.0930556,18.6694444 60.9402778,19.6069444 C60.6041667,21.75 59.3152778,22.8305556 57.0805556,22.8305556 L57.0805556,22.8305556 L56.0069444,22.8305556 C55.7747895,22.8305474 55.5772775,22.9997592 55.5416667,23.2291667 L55.5416667,23.2291667 L55.1527778,25.6944444 C55.1275015,25.8543644 54.9896829,25.972158 54.8277778,25.9722555 L54.8277778,25.9722555 L53.0902778,25.9722555 C53.007355,25.9735038 52.9281968,25.9376671 52.8744466,25.8745106 C52.8206964,25.8113541 52.7979769,25.7274845 52.8125,25.6458333 L52.8125,25.6458333 L54.1833333,16.95 C54.2189441,16.7205925 54.4164562,16.5513807 54.6486111,16.5513889 L54.6486111,16.5513889 L58.0402778,16.5513889 Z M71.9375,16.5388557 C72.0204228,16.5376073 72.0995809,16.573444 72.1533312,16.6366005 C72.2070814,16.6997571 72.2298009,16.7836266 72.2152778,16.8652778 L72.2152778,16.8652778 L70.8430556,25.5611111 C70.8102445,25.7906564 70.6151905,25.9621389 70.3833333,25.965311 L70.3833333,25.965311 L68.9791667,25.965311 C68.8962439,25.9665593 68.8170857,25.9307226 68.7633355,25.8675661 C68.7095853,25.8044096 68.6868658,25.72054 68.7013889,25.6388889 L68.7013889,25.6388889 L70.0902778,16.7847222 C70.1066321,16.6433701 70.227159,16.5372345 70.3694444,16.5388557 L70.3694444,16.5388557 Z M64.7026175,21.2557816 L64.55,21.2555556 C63.6398372,21.2485095 62.8647203,21.9156086 62.7361111,22.8166667 C62.6490834,23.2156416 62.742045,23.6326987 62.9902778,23.9569444 C63.2319444,24.2430556 63.6097222,24.3944444 64.0805556,24.3944444 C64.9963392,24.4169156 65.7838227,23.7500323 65.9125,22.8430556 C65.9929007,22.4386331 65.8907459,22.019341 65.6333333,21.6972222 C65.3564429,21.3953992 64.95899,21.2333607 64.55,21.2555556 Z M56.9382231,18.4335816 L56.5444444,18.4333197 C56.4050189,18.4319611 56.2861804,18.5341622 56.2666667,18.6722222 L56.2666667,18.6722222 L55.9069444,20.9444444 L56.5412361,20.9443302 C57.4035181,20.9419307 58.2556187,20.8891414 58.4319444,19.7277778 C58.5,19.2944444 58.4388889,18.9861111 58.2611111,18.7819444 C57.9625,18.4333197 57.3847222,18.4333197 56.7722222,18.4333197 Z" id="05-dark-shadow" fill="#282828"></path>
                        </g>
                    </g>
                </g>
            </g>
        </g>
    </g>
</svg>